<svg id="Layer_1" xmlns="http://www.w3.org/2000/svg" viewBox="0 0 728.11 192"><defs><style>.cls-1{fill:#dabc45;}.cls-2{fill:#7bb677;}</style></defs><path d="M172.94,0H19.06A19.08,19.08,0,0,0,0,19.06V172.94A19.08,19.08,0,0,0,19.06,192H172.94A19.08,19.08,0,0,0,192,172.94V19.06A19.08,19.08,0,0,0,172.94,0Zm8.95,19.06V60.63H131.37V10.11h41.57A9,9,0,0,1,181.89,19.06ZM70.74,121.26V70.74h50.52v50.52Zm50.52,10.11v50.52H70.74V131.37ZM60.63,121.26H10.11V70.74H60.63ZM70.74,60.63V10.11h50.52V60.63Zm60.63,10.11h50.52v50.52H131.37ZM19.06,10.11H60.63V60.63H10.11V19.06A9,9,0,0,1,19.06,10.11ZM10.11,172.94V131.37H60.63v50.52H19.06A9,9,0,0,1,10.11,172.94Zm162.83,8.95H131.37V131.37h50.52v41.57A9,9,0,0,1,172.94,181.89Z"/><rect class="cls-1" x="70.74" y="70.74" width="50.52" height="50.52"/><rect class="cls-2" x="131.37" y="70.74" width="50.52" height="50.52"/><rect class="cls-2" x="70.74" y="131.37" width="50.52" height="50.52"/><path class="cls-2" d="M10.11,172.94V131.37H60.63v50.52H19.06A9,9,0,0,1,10.11,172.94Z"/><path class="cls-2" d="M172.94,181.89H131.37V131.37h50.52v41.57A9,9,0,0,1,172.94,181.89Z"/><path d="M394.76,36.6V57.26H388.1l-19,96.14H337.78L323.45,91.25l-15,62.15H277L259.3,57.26h-6.67V36.6h47.66V57.26h-8.5l8.83,59.65L319.45,36.6h21.16l17.16,80.31,10.5-59.65h-9V36.6Z"/><path d="M427.34,71.75q17.16,0,26.16,10.5,9.17,10.34,9.17,31.5,0,41.66-35.33,41.65T392,113.75q0-21,9.16-31.5t26.16-10.5Zm-6.66,59a6.37,6.37,0,0,0,6.66,5,6.12,6.12,0,0,0,6.5-5q1.5-5.16,1.5-17.33,0-12.5-1.67-17.16-1.5-4.83-6.33-4.83t-6.5,4.83q-1.66,4.83-1.66,17.16,0,12.16,1.5,17.33Z"/><path d="M525.91,72.59V96.42q-12.84-.51-17.67,4.16t-4.83,17.83v16.5h8.83V153.4H469.75V134.91h7V92.25h-7V73.76h32.16l-.17,12.83a26.63,26.63,0,0,1,9.34-10.17,23.17,23.17,0,0,1,13-3.83Z"/><path d="M606.47,134.91V153.4H572.81v-9q-1.66,4.32-6.83,7.49a20.15,20.15,0,0,1-11,3.17,24.32,24.32,0,0,1-9.83-1.83,20.21,20.21,0,0,1-7.66-6.34q-3.35-4.67-5.17-13.33a105.14,105.14,0,0,1-1.83-21.32q0-22.83,6.5-31.5,6.66-8.66,18-8.66,12.16,0,17.83,10.83V55.09h-8V36.6h34.83v98.31Zm-40.82.16q5.16,0,6.5-4.66,1.5-4.83,1.5-16.66,0-12.16-1.67-16.67-1.5-4.67-6.17-4.66a6.37,6.37,0,0,0-6.49,4.66q-1.5,4.5-1.5,16.67v6.49c.11,1.45.22,3.17.33,5.17a17.31,17.31,0,0,0,.67,4.33,20.27,20.27,0,0,0,1.33,2.84,5.36,5.36,0,0,0,2.16,2,10.36,10.36,0,0,0,3.34.5Z"/><path d="M654.38,134.91V153.4H613.72V134.91h6.83V55.09h-7.5V36.6h34.33v98.31Z"/><path d="M668.79,81.92q10-10.17,25.49-10.16t24.66,10.16q9.16,10.17,9.17,32.16,0,2.67-.33,6.66H686.12c0,6.23.72,10.61,2.16,13.17s3.84,3.66,7.17,3.66q7.34,0,9.5-8.83h22.66q-6.33,26.67-32.33,26.66-17.82,0-27.16-9.33Q659,136.74,659,113.58q0-21.66,9.83-31.66ZM686,108.58h16.5v-2.17q0-8.16-1.67-12.16c-1.11-2.78-3.27-4.17-6.5-4.17a8.59,8.59,0,0,0-3.49.67,5,5,0,0,0-2.34,2,21.38,21.38,0,0,0-1.33,2.83,16.12,16.12,0,0,0-.83,4c-.11,1.78-.23,3.17-.34,4.17v4.83Z"/></svg>